<!DOCTYPE svg PUBLIC "-//W3C//DTD SVG 1.1//EN" "http://www.w3.org/Graphics/SVG/1.1/DTD/svg11.dtd">
<!-- Uploaded to: SVG Repo, www.svgrepo.com, Transformed by: SVG Repo Mixer Tools -->
<svg fill="#d2ac47" height="102px" width="102px" version="1.1" xmlns="http://www.w3.org/2000/svg" viewBox="-29.7 -29.7 356.40 356.40" xmlns:xlink="http://www.w3.org/1999/xlink" enable-background="new 0 0 297 297" transform="rotate(-45)">
<g id="SVGRepo_bgCarrier" stroke-width="0"/>
<g id="SVGRepo_tracerCarrier" stroke-linecap="round" stroke-linejoin="round" stroke="#CCCCCC" stroke-width="2.97"/>
<g id="SVGRepo_iconCarrier"> <path d="m227.281,92.151c0.725-0.628 1.451-1.269 2.181-1.924 16.078-14.454 23.894-27.249 23.894-39.114 0-17.112-13.668-31.033-30.468-31.033-7.952,0-15.203,3.12-20.635,8.22-5.432-5.1-12.683-8.22-20.636-8.22-16.801,0-30.47,13.921-30.47,31.033 0,11.866 7.816,24.661 23.896,39.115 0.86,0.774 1.72,1.527 2.573,2.264-10.575,2.983-20.399,7.777-29.116,14.024-9.06-6.493-19.316-11.413-30.369-14.365 0.725-0.628 1.451-1.269 2.181-1.924 16.078-14.454 23.894-27.249 23.894-39.114 0-17.112-13.668-31.033-30.468-31.033-7.952,0-15.203,3.12-20.635,8.22-5.433-5.1-12.683-8.22-20.636-8.22-16.801,0-30.47,13.921-30.47,31.033 0,11.866 7.816,24.661 23.895,39.115 0.86,0.774 1.72,1.527 2.573,2.264-39.458,11.131-68.465,47.469-68.465,90.46 0,51.813 42.135,93.968 93.926,93.968 20.336,0 39.183-6.502 54.574-17.534 15.393,11.032 34.239,17.534 54.576,17.534 51.79,0 93.924-42.154 93.924-93.968 0-43.445-29.622-80.091-69.719-90.801zm-56.465-41.038c0-6.267 4.845-11.365 10.801-11.365 5.956,0 10.802,5.099 10.802,11.365 0,5.431 4.403,9.834 9.834,9.834 5.431,0 9.834-4.403 9.834-9.834 0-6.267 4.845-11.365 10.801-11.365s10.8,5.099 10.8,11.365c0,9.529-17.209,25.629-31.44,35.814-14.23-10.164-31.432-26.249-31.432-35.814zm-22.316,182.157c-12.207-13.245-19.681-30.922-19.681-50.317 0-19.396 7.474-37.073 19.681-50.319 12.208,13.246 19.682,30.924 19.682,50.319 0,19.395-7.474,37.071-19.682,50.317zm-86.834-182.157c0-6.267 4.845-11.365 10.801-11.365s10.802,5.099 10.802,11.365c0,5.431 4.403,9.834 9.834,9.834 5.431,0 9.834-4.403 9.834-9.834 0-6.267 4.845-11.365 10.801-11.365 5.956,0 10.8,5.099 10.8,11.365 0,9.529-17.209,25.629-31.44,35.814-14.231-10.164-31.432-26.249-31.432-35.814zm-41.997,131.839c3.55271e-15-40.97 33.312-74.302 74.257-74.302 14.484,0 28.003,4.188 39.44,11.393-15.043,16.668-24.215,38.736-24.215,62.909 0,24.173 9.172,46.239 24.215,62.907-11.437,7.205-24.956,11.393-39.44,11.393-40.946,5.68434e-14-74.257-33.33-74.257-74.3zm183.407,74.3c-14.485,0-28.004-4.188-39.441-11.393 15.043-16.668 24.215-38.734 24.215-62.907 0-24.173-9.172-46.241-24.215-62.909 11.438-7.205 24.956-11.393 39.441-11.393 40.944,0 74.256,33.332 74.256,74.302 0,40.97-33.312,74.3-74.256,74.3z"/> </g>
</svg>